Fly_normalized_Motion_pl07
version=1
nRows=25
nColumns=43
inDegrees=yes
endheader
time		pelvis_tilt		pelvis_list		pelvis_rotation		pelvis_tx		pelvis_ty		pelvis_tz		hip_flexion_r		hip_adduction_r		hip_rotation_r		knee_angle_r		ankle_angle_r		subtalar_angle_r		mtp_angle_r		hip_flexion_l		hip_adduction_l		hip_rotation_l		knee_angle_l		ankle_angle_l		subtalar_angle_l		mtp_angle_l		lumbar_extension		lumbar_bending		lumbar_rotation		neck_flexion		neck_lateral_bending		neck_rotation		arm_flex_r		arm_add_r		arm_rot_r		elbow_flex_r		pro_sup_r		wrist_flex_r		wrist_dev_r		hand_finger_flex_r		arm_flex_l		arm_add_l		arm_rot_l		elbow_flex_l		pro_sup_l		wrist_flex_l		wrist_dev_l		hand_finger_flex_l		
0.441667		2.826582		-17.819109		94.984077		-0.000467		1.688090		1.235939		84.779573		-11.647934		-4.551755		-105.219761		-2.192044		-0.845904		6.673762		82.184827		-1.541066		5.627756		-106.157172		5.165464		-1.571430		-18.756342		-30.830247		4.563941		-1.585696		15.651288		2.035521		4.272262		87.031530		-29.318123		34.530819		52.259611		84.953753		-23.385209		5.182534		52.031370		105.314604		-39.021172		73.726807		55.220853		112.540746		-35.359559		10.035990		83.682203		
0.445657		2.756312		-17.497710		94.799507		-0.000472		1.683877		1.227517		84.671642		-11.437958		-4.664536		-103.943075		-2.887738		-0.913554		6.887518		81.991288		-1.602968		5.406932		-104.989070		4.458262		-1.508048		-18.582977		-31.033361		4.502833		-1.466439		15.235137		1.968618		4.268751		85.601381		-30.057203		34.999738		51.887593		85.739454		-23.118473		5.819935		51.830975		103.800282		-40.145898		73.358995		55.115879		112.827507		-35.324946		10.261743		83.882224		
0.449646		2.738712		-17.255860		94.661896		-0.000433		1.679546		1.219093		84.551334		-11.244886		-4.851294		-102.603411		-3.430005		-1.139116		7.292114		81.801948		-1.664080		5.224739		-103.716908		3.856956		-1.567160		-18.194439		-31.158927		4.522160		-1.383014		14.892439		1.743728		4.285925		84.116255		-30.739242		35.273410		51.636488		86.983081		-22.672227		6.829008		51.508926		102.031932		-41.401691		72.491584		55.138065		113.579646		-35.230409		10.559525		84.233934		
0.453636		2.746268		-17.032822		94.486096		-0.000354		1.675062		1.210534		84.389065		-11.004545		-5.029782		-101.211781		-3.949861		-1.147650		7.830790		81.597583		-1.813047		5.057125		-102.435075		3.230373		-1.590575		-17.409398		-31.291780		4.559776		-1.370508		14.761956		1.563055		4.487385		82.591343		-31.307579		35.289887		51.533128		88.902485		-21.662913		8.220565		51.228259		99.931108		-42.972399		70.842900		55.549016		115.055803		-34.840061		11.006222		84.831594		
0.457626		2.769772		-16.862285		94.416811		-0.000438		1.670405		1.201909		84.201698		-10.882005		-5.257995		-99.812180		-4.264960		-1.262796		8.429095		81.378307		-1.844683		4.925129		-101.056673		2.580177		-1.792607		-16.185305		-31.323394		4.734767		-1.499057		14.352959		0.945972		4.676736		80.946667		-31.708315		34.975876		51.466491		91.140613		-20.322773		9.576729		50.905635		97.499555		-44.700634		68.738505		56.085686		116.867155		-34.118714		11.684876		85.344567		
0.461616		2.781506		-16.656124		94.289653		-0.000248		1.665553		1.193213		83.950369		-10.672569		-5.429792		-98.403526		-4.552974		-1.173561		8.705410		81.099554		-2.016930		4.756894		-99.673140		1.976106		-1.882343		-15.402004		-31.400621		4.729913		-1.531355		14.032461		0.919644		4.785004		79.278397		-32.529824		35.201605		51.548610		92.344813		-19.431716		10.328495		50.831453		95.486102		-46.350702		67.485252		56.616328		117.600020		-33.737936		12.092198		85.530584		
0.465606		2.796179		-16.483345		94.178223		-0.000026		1.660522		1.184479		83.685240		-10.482338		-5.609875		-96.974612		-4.804825		-1.080964		8.939333		80.808084		-2.197065		4.591775		-98.236250		1.411974		-1.996695		-14.669132		-31.436769		4.708602		-1.570866		13.673003		0.977477		4.875763		77.532269		-33.482856		35.499195		51.791763		93.438844		-18.615384		11.009254		50.830893		93.451238		-48.042074		66.274263		57.198505		118.218679		-33.438289		12.454667		85.715820		
0.469596		2.816137		-16.371474		94.092691		0.000104		1.655292		1.175688		83.428961		-10.324655		-5.784073		-95.510011		-5.039258		-0.981991		9.199249		80.534834		-2.349381		4.425227		-96.741460		0.778081		-2.243216		-13.775877		-31.416170		4.719069		-1.616205		13.394633		0.965223		4.992281		75.693598		-34.567501		35.730367		52.309191		94.653878		-17.727759		11.782096		50.897586		91.105557		-49.782350		64.595245		57.902978		118.873286		-33.176944		12.897862		85.934203		
0.473586		2.838070		-16.335419		94.021732		0.000112		1.649919		1.166850		83.185162		-10.195577		-5.947750		-93.981736		-5.269493		-0.836876		9.517649		80.278986		-2.475527		4.252003		-95.157396		-0.003448		-2.680023		-12.680628		-31.347203		4.748502		-1.592314		13.317761		0.879134		5.052769		73.660889		-35.896083		35.749436		53.217309		95.845910		-16.848300		12.624240		51.051495		88.324544		-51.426713		62.236528		58.660308		119.427011		-33.045541		13.371002		86.197265		
0.477576		2.853139		-16.335700		93.965370		0.000126		1.644418		1.157958		82.926517		-10.078339		-6.097342		-92.421394		-5.483552		-0.683513		9.853623		80.010666		-2.596591		4.071451		-93.508418		-0.827438		-3.173617		-11.597982		-31.258054		4.747682		-1.477079		13.334352		0.870123		4.987113		71.396993		-37.486113		35.600160		54.411068		96.732949		-16.189891		13.370906		51.254470		85.403688		-52.912027		59.732947		59.366511		119.723825		-33.121934		13.679814		86.491660		
0.481566		2.841088		-16.346936		93.925178		0.000139		1.638682		1.149007		82.637641		-9.993666		-6.218767		-90.848465		-5.643396		-0.592847		10.197258		79.710711		-2.709302		3.884678		-91.827222		-1.547238		-3.519286		-10.594771		-31.142160		4.675892		-1.355472		13.284979		1.117047		4.893531		68.982640		-39.269730		35.520650		55.710981		97.305655		-15.729453		13.875195		51.459861		82.666428		-54.375188		57.694757		60.039646		119.898224		-33.248127		13.699025		86.801389		
0.485556		2.799414		-16.327093		93.901391		0.000083		1.632875		1.139952		82.276479		-9.942249		-6.306630		-89.256413		-5.822677		-0.533751		10.496752		79.311668		-2.794487		3.668364		-90.083356		-2.265434		-3.934003		-9.766413		-31.106716		4.587479		-1.221690		13.490030		1.418305		4.827886		66.362597		-41.228113		35.245678		57.259224		97.522464		-15.470128		14.116466		51.678459		79.920985		-55.908684		55.767535		60.824901		119.697215		-33.555384		13.650678		87.098053		
0.489545		2.752851		-16.321084		93.876855		-0.000019		1.626962		1.130796		81.866852		-9.899499		-6.393819		-87.607573		-6.057543		-0.526528		10.771725		78.886439		-2.858877		3.463834		-88.292799		-3.092900		-4.431029		-9.053541		-31.053413		4.507298		-0.993889		13.645854		1.544095		4.586824		63.353854		-43.246260		34.431193		58.943961		97.401356		-15.535257		14.402649		51.922752		76.872593		-57.248345		53.507820		61.491790		119.202003		-34.178572		13.571832		87.447601		
0.493535		2.714046		-16.327914		93.861484		-0.000175		1.620883		1.121534		81.428738		-9.886579		-6.523547		-85.936071		-6.363277		-0.621716		11.101691		78.426716		-2.977209		3.201002		-86.443195		-3.938879		-4.872594		-8.216139		-30.991786		4.450380		-0.724371		13.885082		1.654838		4.262114		59.962821		-45.272915		33.107316		60.776305		97.155074		-15.817307		14.726400		52.211485		73.556975		-58.484978		50.954488		62.061575		118.902749		-34.873776		13.291281		87.951440		
0.497525		2.656326		-16.317336		93.860876		-0.000333		1.614689		1.112219		80.930222		-9.851814		-6.576294		-84.223757		-6.718808		-0.812604		11.438550		77.888459		-3.009040		3.024692		-84.545784		-4.732404		-5.261383		-7.369860		-30.968373		4.362017		-0.449803		14.175018		1.794880		3.983097		56.280793		-47.275772		31.453587		62.572703		96.729742		-16.247153		14.912522		52.524197		70.190437		-59.751129		48.427605		62.732663		118.634301		-35.584676		12.896821		88.508813		
0.501515		2.618199		-16.350810		93.852551		-0.000507		1.608238		1.102832		80.421828		-9.827247		-6.696310		-82.443700		-7.196723		-1.112060		12.043298		77.372700		-3.069081		2.858003		-82.632597		-5.591932		-5.569008		-5.947408		-30.882466		4.296778		-0.064001		14.422176		1.833601		3.541111		52.040816		-49.213816		29.080850		64.434246		96.469183		-16.759661		15.213922		52.960958		66.415906		-60.732923		45.304005		63.191447		119.039430		-36.122863		12.178268		89.357862		
0.505505		2.523768		-16.310575		93.878542		-0.000646		1.601691		1.093392		79.825436		-9.831364		-6.732798		-80.673684		-7.689018		-1.481050		12.259164		76.724766		-3.089799		2.630754		-80.664738		-6.365428		-5.879352		-5.353950		-30.941856		4.184164		0.064620		14.989471		2.042224		3.377924		47.625715		-50.864961		26.521830		66.159699		95.387020		-17.563256		14.851277		53.236326		62.718797		-62.281703		42.786043		64.041646		118.203037		-37.151374		11.944729		89.682226		
0.509495		2.493365		-16.423066		93.890205		-0.000897		1.594739		1.083902		79.320829		-9.828415		-6.885323		-78.828468		-8.242205		-1.942161		12.633500		76.229971		-3.192659		2.399545		-78.686437		-7.197055		-6.070891		-4.314552		-30.839407		4.136565		0.488838		15.681954		2.101087		2.890153		42.375651		-52.677369		23.085726		68.161475		94.827998		-18.255718		14.622540		53.662411		58.378288		-63.248872		39.207767		64.641288		118.393083		-37.978576		11.269638		89.983620		
0.513485		2.460029		-16.392221		93.959110		-0.001080		1.587777		1.074340		78.650022		-9.821659		-6.957799		-76.992838		-8.925739		-2.381413		12.955431		75.539902		-3.221853		2.229804		-76.659794		-7.963845		-6.281100		-3.257290		-30.892329		4.106248		0.740217		16.310876		2.183141		2.582659		36.824521		-53.955835		19.055783		69.889552		94.101221		-18.837394		14.180449		53.951265		53.883770		-64.447063		35.678512		65.339331		118.477501		-38.433145		10.802766		90.000210		
0.517475		2.405239		-16.358333		94.013163		-0.001268		1.580581		1.064732		77.947612		-9.854083		-7.085902		-75.131250		-9.614964		-2.816327		13.158868		74.819961		-3.245863		2.056704		-74.634205		-8.716692		-6.442873		-2.322073		-30.924418		4.048459		0.992140		16.924054		2.252879		2.292860		30.947052		-55.008475		14.716574		71.494125		93.365752		-19.302127		13.575638		54.078608		49.145527		-65.589521		32.048556		65.971429		118.515779		-39.002527		10.418990		90.000210		
0.521465		2.409957		-16.299363		94.086176		-0.001443		1.573205		1.055045		77.170558		-9.884958		-7.297968		-73.247710		-10.400155		-3.162260		13.248641		74.065067		-3.310512		1.909096		-72.602115		-9.466818		-6.578405		-1.317048		-30.982825		4.074071		1.296576		17.546424		2.137597		1.875228		24.583576		-55.666307		9.658870		73.051886		92.941464		-19.365536		12.876100		53.909849		43.981679		-66.534427		27.948248		66.457035		118.979309		-39.366088		9.942610		90.000210		
0.525455		2.350614		-16.236005		94.154695		-0.001721		1.565585		1.045328		76.395053		-9.916598		-7.390050		-71.382731		-11.067044		-3.538966		13.165074		73.257614		-3.311927		1.733896		-70.534688		-10.181374		-6.706515		-0.672120		-31.013127		4.036436		1.574928		18.064558		2.182332		1.607983		18.063653		-56.078905		4.569257		74.430425		92.330591		-19.564513		12.011153		53.694310		38.706119		-67.395610		23.977348		66.857596		118.920745		-40.200591		9.647194		90.000210		
0.529444		2.338414		-16.137343		94.225572		-0.001949		1.557786		1.035544		75.552780		-9.932191		-7.540595		-69.515566		-11.790030		-3.785139		12.977802		72.401712		-3.363850		1.576559		-68.462581		-10.906592		-6.823641		-0.016462		-31.063174		4.066127		1.920068		18.567751		2.023431		1.210200		11.352954		-56.081508		-0.916597		75.729741		92.147396		-19.358366		11.134693		53.234272		33.172056		-68.026710		19.685184		67.068212		119.276800		-40.720155		9.234204		90.000210		
0.533434		2.324989		-15.973167		94.294632		-0.002198		1.549899		1.025657		74.616832		-9.958387		-7.723777		-67.643000		-12.504182		-3.928771		12.707125		71.452238		-3.422497		1.411900		-66.383143		-11.628074		-6.933721		0.655790		-31.139227		4.119426		2.246076		18.922132		1.816911		0.816671		4.827288		-55.659685		-6.355182		76.837166		92.262749		-18.782494		10.282932		52.399523		27.466244		-68.446056		15.212475		67.073776		119.816195		-40.986503		8.798779		90.000210		
0.537424		2.342295		-15.694086		94.375839		-0.002430		1.542016		1.015576		73.537276		-9.990290		-7.933026		-65.812913		-13.194409		-3.986781		12.341802		70.357054		-3.497408		1.284809		-64.297867		-12.366046		-7.043135		1.495971		-31.294697		4.214374		2.484041		19.112276		1.602332		0.506068		-1.227980		-54.844744		-11.479855		77.774430		92.713185		-17.603937		9.486264		50.868186		21.283526		-68.702655		10.110723		67.020015		120.647649		-40.877520		8.261479		90.000210		
